<mxfile host="app.diagrams.net" modified="2023-07-16T19:43:01.352Z" agent="5.0 (Macintosh; Intel Mac OS X 10_15_7) AppleWebKit/537.36 (KHTML, like Gecko) Chrome/114.0.0.0 Safari/537.36" etag="xlWE7d3EuVHBYTfRIMOi" version="20.8.23" type="github">
  <diagram name="Page-1" id="42789a77-a242-8287-6e28-9cd8cfd52e62">
    <mxGraphModel dx="2074" dy="2013" grid="1" gridSize="10" guides="1" tooltips="1" connect="1" arrows="1" fold="1" page="1" pageScale="1" pageWidth="1100" pageHeight="850" background="none" math="0" shadow="0">
      <root>
        <mxCell id="0" />
        <mxCell id="1" parent="0" />
        <mxCell id="hTeNw-fl57W3OzCuD92G-1" value="2" style="ellipse;whiteSpace=wrap;html=1;aspect=fixed;fillColor=#FFFFFF;" parent="1" vertex="1">
          <mxGeometry x="360" y="190" width="50" height="50" as="geometry" />
        </mxCell>
        <mxCell id="hTeNw-fl57W3OzCuD92G-2" value="3" style="ellipse;whiteSpace=wrap;html=1;aspect=fixed;fillColor=#FFFFFF;" parent="1" vertex="1">
          <mxGeometry x="600" y="190" width="50" height="50" as="geometry" />
        </mxCell>
        <mxCell id="hTeNw-fl57W3OzCuD92G-3" value="4" style="ellipse;whiteSpace=wrap;html=1;aspect=fixed;strokeColor=#000000;fillColor=#CCCCCC;" parent="1" vertex="1">
          <mxGeometry x="475" y="310" width="50" height="50" as="geometry" />
        </mxCell>
        <mxCell id="hTeNw-fl57W3OzCuD92G-4" value="11" style="ellipse;whiteSpace=wrap;html=1;aspect=fixed;fillColor=#808080;strokeColor=#000000;" parent="1" vertex="1">
          <mxGeometry x="310" y="360" width="50" height="50" as="geometry" />
        </mxCell>
        <mxCell id="hTeNw-fl57W3OzCuD92G-5" value="5" style="ellipse;whiteSpace=wrap;html=1;aspect=fixed;fillColor=#CCCCCC;strokeColor=#000000;" parent="1" vertex="1">
          <mxGeometry x="475" y="200" width="50" height="50" as="geometry" />
        </mxCell>
        <mxCell id="hTeNw-fl57W3OzCuD92G-6" value="6" style="ellipse;whiteSpace=wrap;html=1;aspect=fixed;fillColor=#CCCCCC;" parent="1" vertex="1">
          <mxGeometry x="620" y="300" width="50" height="50" as="geometry" />
        </mxCell>
        <mxCell id="hTeNw-fl57W3OzCuD92G-7" value="7" style="ellipse;whiteSpace=wrap;html=1;aspect=fixed;fillColor=#CCCCCC;" parent="1" vertex="1">
          <mxGeometry x="475" y="420" width="50" height="50" as="geometry" />
        </mxCell>
        <mxCell id="hTeNw-fl57W3OzCuD92G-8" value="&lt;font color=&quot;#ffffff&quot;&gt;8&lt;/font&gt;" style="ellipse;whiteSpace=wrap;html=1;aspect=fixed;fillColor=#000000;" parent="1" vertex="1">
          <mxGeometry x="475" y="90" width="50" height="50" as="geometry" />
        </mxCell>
        <mxCell id="hTeNw-fl57W3OzCuD92G-9" value="&lt;font color=&quot;#ffffff&quot;&gt;9&lt;/font&gt;" style="ellipse;whiteSpace=wrap;html=1;aspect=fixed;fillColor=#000000;" parent="1" vertex="1">
          <mxGeometry x="475" y="-10" width="50" height="50" as="geometry" />
        </mxCell>
        <mxCell id="hTeNw-fl57W3OzCuD92G-10" value="&lt;font color=&quot;#ffffff&quot;&gt;12&lt;/font&gt;" style="ellipse;whiteSpace=wrap;html=1;aspect=fixed;fillColor=#B3B3B3;" parent="1" vertex="1">
          <mxGeometry x="260" y="190" width="50" height="50" as="geometry" />
        </mxCell>
        <mxCell id="hTeNw-fl57W3OzCuD92G-11" value="&lt;font color=&quot;#ffffff&quot;&gt;13&lt;/font&gt;" style="ellipse;whiteSpace=wrap;html=1;aspect=fixed;fillColor=#B3B3B3;" parent="1" vertex="1">
          <mxGeometry x="170" y="190" width="50" height="50" as="geometry" />
        </mxCell>
        <mxCell id="hTeNw-fl57W3OzCuD92G-12" value="&lt;font color=&quot;#ffffff&quot;&gt;14&lt;/font&gt;" style="ellipse;whiteSpace=wrap;html=1;aspect=fixed;strokeColor=#000000;shadow=0;fillColor=#B3B3B3;" parent="1" vertex="1">
          <mxGeometry x="80" y="190" width="50" height="50" as="geometry" />
        </mxCell>
        <mxCell id="hTeNw-fl57W3OzCuD92G-13" value="10" style="ellipse;whiteSpace=wrap;html=1;aspect=fixed;strokeColor=#000000;fillColor=#808080;" parent="1" vertex="1">
          <mxGeometry x="690" y="190" width="50" height="50" as="geometry" />
        </mxCell>
        <mxCell id="hTeNw-fl57W3OzCuD92G-14" value="" style="endArrow=classic;html=1;rounded=0;exitX=1;exitY=1;exitDx=0;exitDy=0;entryX=0;entryY=0;entryDx=0;entryDy=0;" parent="1" source="hTeNw-fl57W3OzCuD92G-1" target="hTeNw-fl57W3OzCuD92G-3" edge="1">
          <mxGeometry width="50" height="50" relative="1" as="geometry">
            <mxPoint x="450" y="360" as="sourcePoint" />
            <mxPoint x="490" y="300" as="targetPoint" />
          </mxGeometry>
        </mxCell>
        <mxCell id="hTeNw-fl57W3OzCuD92G-15" value="" style="endArrow=classic;html=1;rounded=0;exitX=0;exitY=1;exitDx=0;exitDy=0;entryX=1;entryY=0;entryDx=0;entryDy=0;" parent="1" source="hTeNw-fl57W3OzCuD92G-2" target="hTeNw-fl57W3OzCuD92G-3" edge="1">
          <mxGeometry width="50" height="50" relative="1" as="geometry">
            <mxPoint x="402.6776695296637" y="242.67766952966372" as="sourcePoint" />
            <mxPoint x="520" y="300" as="targetPoint" />
          </mxGeometry>
        </mxCell>
        <mxCell id="hTeNw-fl57W3OzCuD92G-16" value="" style="endArrow=classic;html=1;rounded=0;entryX=1;entryY=0;entryDx=0;entryDy=0;exitX=0;exitY=0.5;exitDx=0;exitDy=0;" parent="1" source="hTeNw-fl57W3OzCuD92G-3" target="hTeNw-fl57W3OzCuD92G-4" edge="1">
          <mxGeometry width="50" height="50" relative="1" as="geometry">
            <mxPoint x="390" y="310" as="sourcePoint" />
            <mxPoint x="500" y="310" as="targetPoint" />
          </mxGeometry>
        </mxCell>
        <mxCell id="hTeNw-fl57W3OzCuD92G-19" value="" style="endArrow=classic;html=1;rounded=0;entryX=0.5;entryY=0;entryDx=0;entryDy=0;exitX=0.5;exitY=1;exitDx=0;exitDy=0;" parent="1" source="hTeNw-fl57W3OzCuD92G-3" target="hTeNw-fl57W3OzCuD92G-7" edge="1">
          <mxGeometry width="50" height="50" relative="1" as="geometry">
            <mxPoint x="505" y="345" as="sourcePoint" />
            <mxPoint x="392.6776695296637" y="412.3223304703363" as="targetPoint" />
          </mxGeometry>
        </mxCell>
        <mxCell id="hTeNw-fl57W3OzCuD92G-20" value="" style="endArrow=classic;html=1;rounded=0;entryX=0;entryY=0.5;entryDx=0;entryDy=0;exitX=1;exitY=0.5;exitDx=0;exitDy=0;" parent="1" source="hTeNw-fl57W3OzCuD92G-2" target="hTeNw-fl57W3OzCuD92G-13" edge="1">
          <mxGeometry width="50" height="50" relative="1" as="geometry">
            <mxPoint x="515" y="355" as="sourcePoint" />
            <mxPoint x="402.6776695296637" y="422.3223304703363" as="targetPoint" />
          </mxGeometry>
        </mxCell>
        <mxCell id="hTeNw-fl57W3OzCuD92G-21" value="" style="endArrow=classic;html=1;rounded=0;entryX=1;entryY=0.5;entryDx=0;entryDy=0;exitX=0;exitY=0.5;exitDx=0;exitDy=0;" parent="1" source="hTeNw-fl57W3OzCuD92G-1" target="hTeNw-fl57W3OzCuD92G-10" edge="1">
          <mxGeometry width="50" height="50" relative="1" as="geometry">
            <mxPoint x="525" y="365" as="sourcePoint" />
            <mxPoint x="412.6776695296637" y="432.3223304703363" as="targetPoint" />
          </mxGeometry>
        </mxCell>
        <mxCell id="hTeNw-fl57W3OzCuD92G-22" value="" style="endArrow=classic;html=1;rounded=0;entryX=1;entryY=0.5;entryDx=0;entryDy=0;exitX=0;exitY=0.5;exitDx=0;exitDy=0;" parent="1" source="hTeNw-fl57W3OzCuD92G-10" target="hTeNw-fl57W3OzCuD92G-11" edge="1">
          <mxGeometry width="50" height="50" relative="1" as="geometry">
            <mxPoint x="360" y="225" as="sourcePoint" />
            <mxPoint x="300" y="225" as="targetPoint" />
          </mxGeometry>
        </mxCell>
        <mxCell id="hTeNw-fl57W3OzCuD92G-23" value="" style="endArrow=classic;html=1;rounded=0;entryX=1;entryY=0.5;entryDx=0;entryDy=0;exitX=0;exitY=0.5;exitDx=0;exitDy=0;" parent="1" source="hTeNw-fl57W3OzCuD92G-11" target="hTeNw-fl57W3OzCuD92G-12" edge="1">
          <mxGeometry width="50" height="50" relative="1" as="geometry">
            <mxPoint x="370" y="235" as="sourcePoint" />
            <mxPoint x="310" y="235" as="targetPoint" />
          </mxGeometry>
        </mxCell>
        <mxCell id="hTeNw-fl57W3OzCuD92G-24" value="" style="endArrow=classic;html=1;rounded=0;entryX=0;entryY=1;entryDx=0;entryDy=0;exitX=1;exitY=0;exitDx=0;exitDy=0;" parent="1" source="hTeNw-fl57W3OzCuD92G-1" target="hTeNw-fl57W3OzCuD92G-8" edge="1">
          <mxGeometry width="50" height="50" relative="1" as="geometry">
            <mxPoint x="380" y="245" as="sourcePoint" />
            <mxPoint x="320" y="245" as="targetPoint" />
          </mxGeometry>
        </mxCell>
        <mxCell id="hTeNw-fl57W3OzCuD92G-25" value="" style="endArrow=classic;html=1;rounded=0;entryX=1;entryY=1;entryDx=0;entryDy=0;exitX=0;exitY=0;exitDx=0;exitDy=0;" parent="1" source="hTeNw-fl57W3OzCuD92G-2" target="hTeNw-fl57W3OzCuD92G-8" edge="1">
          <mxGeometry width="50" height="50" relative="1" as="geometry">
            <mxPoint x="390" y="255" as="sourcePoint" />
            <mxPoint x="330" y="255" as="targetPoint" />
          </mxGeometry>
        </mxCell>
        <mxCell id="hTeNw-fl57W3OzCuD92G-26" value="" style="endArrow=classic;html=1;rounded=0;entryX=0.5;entryY=1;entryDx=0;entryDy=0;exitX=0.5;exitY=0;exitDx=0;exitDy=0;" parent="1" source="hTeNw-fl57W3OzCuD92G-8" target="hTeNw-fl57W3OzCuD92G-9" edge="1">
          <mxGeometry width="50" height="50" relative="1" as="geometry">
            <mxPoint x="400" y="265" as="sourcePoint" />
            <mxPoint x="340" y="265" as="targetPoint" />
          </mxGeometry>
        </mxCell>
        <mxCell id="lx5myW2t_ZkpCqAh5Hlk-9" value="" style="endArrow=classic;html=1;rounded=0;exitX=0.5;exitY=0;exitDx=0;exitDy=0;entryX=0.5;entryY=1;entryDx=0;entryDy=0;" parent="1" source="hTeNw-fl57W3OzCuD92G-3" target="hTeNw-fl57W3OzCuD92G-5" edge="1">
          <mxGeometry width="50" height="50" relative="1" as="geometry">
            <mxPoint x="450" y="260" as="sourcePoint" />
            <mxPoint x="500" y="210" as="targetPoint" />
          </mxGeometry>
        </mxCell>
        <mxCell id="lx5myW2t_ZkpCqAh5Hlk-10" value="" style="endArrow=classic;html=1;rounded=0;exitX=0.5;exitY=0;exitDx=0;exitDy=0;entryX=0.5;entryY=1;entryDx=0;entryDy=0;" parent="1" source="hTeNw-fl57W3OzCuD92G-5" target="hTeNw-fl57W3OzCuD92G-8" edge="1">
          <mxGeometry width="50" height="50" relative="1" as="geometry">
            <mxPoint x="510" y="320" as="sourcePoint" />
            <mxPoint x="510" y="260" as="targetPoint" />
          </mxGeometry>
        </mxCell>
        <mxCell id="lx5myW2t_ZkpCqAh5Hlk-11" value="" style="endArrow=classic;html=1;rounded=0;exitX=1;exitY=1;exitDx=0;exitDy=0;entryX=0;entryY=0;entryDx=0;entryDy=0;" parent="1" source="hTeNw-fl57W3OzCuD92G-5" target="hTeNw-fl57W3OzCuD92G-6" edge="1">
          <mxGeometry width="50" height="50" relative="1" as="geometry">
            <mxPoint x="450" y="260" as="sourcePoint" />
            <mxPoint x="500" y="210" as="targetPoint" />
          </mxGeometry>
        </mxCell>
      </root>
    </mxGraphModel>
  </diagram>
</mxfile>
